<svg width="1355" height="1022" viewBox="0 0 1355 1022" fill="none" xmlns="http://www.w3.org/2000/svg">
<path d="M600.066 846H595.393L587.888 835.592C586.047 837.244 584.089 838.802 582.012 840.265C579.982 841.681 577.834 842.932 575.569 844.018C573.303 845.056 570.967 845.882 568.56 846.496C566.2 847.109 563.792 847.416 561.338 847.416C556.004 847.416 550.977 846.519 546.257 844.726C541.584 842.932 537.478 840.336 533.938 836.938C530.445 833.492 527.684 829.291 525.654 824.335C523.625 819.379 522.61 813.738 522.61 807.414C522.61 801.514 523.625 796.109 525.654 791.2C527.684 786.244 530.445 781.996 533.938 778.456C537.478 774.916 541.584 772.178 546.257 770.243C550.977 768.261 556.004 767.27 561.338 767.27C563.792 767.27 566.223 767.576 568.63 768.19C571.038 768.804 573.374 769.653 575.64 770.739C577.905 771.824 580.053 773.099 582.083 774.562C584.159 776.025 586.095 777.606 587.888 779.306L595.393 770.314H600.066V846ZM580.596 807.414C580.596 804.77 580.076 802.222 579.038 799.767C578.047 797.265 576.678 795.071 574.932 793.183C573.185 791.247 571.132 789.713 568.772 788.581C566.459 787.401 563.981 786.811 561.338 786.811C558.695 786.811 556.193 787.259 553.833 788.156C551.52 789.053 549.491 790.374 547.744 792.121C546.045 793.867 544.7 796.038 543.708 798.634C542.717 801.183 542.222 804.11 542.222 807.414C542.222 810.718 542.717 813.668 543.708 816.264C544.7 818.812 546.045 820.96 547.744 822.707C549.491 824.453 551.52 825.775 553.833 826.671C556.193 827.568 558.695 828.017 561.338 828.017C563.981 828.017 566.459 827.45 568.772 826.317C571.132 825.137 573.185 823.603 574.932 821.715C576.678 819.78 578.047 817.585 579.038 815.131C580.076 812.629 580.596 810.057 580.596 807.414ZM668.813 807.414C668.813 804.77 668.294 802.222 667.256 799.767C666.265 797.265 664.896 795.071 663.149 793.183C661.403 791.247 659.35 789.713 656.99 788.581C654.677 787.401 652.199 786.811 649.556 786.811C646.912 786.811 644.411 787.259 642.051 788.156C639.738 789.053 637.708 790.374 635.962 792.121C634.263 793.867 632.917 796.038 631.926 798.634C630.935 801.183 630.439 804.11 630.439 807.414C630.439 810.576 630.935 813.432 631.926 815.98C632.917 818.482 634.263 820.63 635.962 822.423C637.708 824.217 639.738 825.609 642.051 826.601C644.411 827.545 646.912 828.017 649.556 828.017C652.199 828.017 654.677 827.45 656.99 826.317C659.35 825.137 661.403 823.603 663.149 821.715C664.896 819.78 666.265 817.585 667.256 815.131C668.294 812.629 668.813 810.057 668.813 807.414ZM688.284 836.442C688.284 841.776 687.269 846.779 685.239 851.452C683.21 856.125 680.425 860.207 676.885 863.7C673.392 867.193 669.285 869.954 664.565 871.984C659.893 874.014 654.889 875.028 649.556 875.028L639.856 874.887V855.558L649.414 855.7C652.435 855.7 655.007 855.299 657.131 854.496C659.255 853.741 661.049 852.679 662.512 851.31C663.975 849.988 665.132 848.454 665.981 846.708C666.878 844.962 667.586 843.121 668.105 841.186C667.35 842.413 666.265 843.428 664.849 844.23C663.433 844.985 661.851 845.599 660.105 846.071C658.406 846.59 656.612 846.944 654.724 847.133C652.883 847.322 651.16 847.416 649.556 847.416C644.222 847.416 639.195 846.496 634.475 844.655C629.802 842.814 625.696 840.194 622.156 836.796C618.663 833.35 615.902 829.149 613.872 824.193C611.842 819.237 610.828 813.644 610.828 807.414C610.828 801.702 611.842 796.392 613.872 791.483C615.902 786.575 618.663 782.326 622.156 778.739C625.696 775.152 629.802 772.344 634.475 770.314C639.195 768.284 644.222 767.27 649.556 767.27C652.01 767.27 654.441 767.576 656.848 768.19C659.255 768.804 661.592 769.653 663.857 770.739C666.123 771.824 668.271 773.099 670.3 774.562C672.377 776.025 674.312 777.606 676.106 779.306L683.611 770.314H688.284V836.442Z" fill="#EA4C87"/>
<path d="M200.264 410V136.5L190.264 86.5L200.764 56.5H296.264L394.264 246.5H404.264L485.264 56.5H584.764L589.764 86.5L584.764 134.5V410H494.264L495.764 367.5V228H490.264L470.264 276L425.264 360H365.264L296.264 228H291.264V268.5L296.264 410H200.264Z" fill="#EA4C87"/>
<path d="M676.838 235.414C676.838 241.078 675.823 246.364 673.793 251.273C671.764 256.135 669.003 260.359 665.51 263.946C662.017 267.486 657.91 270.295 653.19 272.372C648.518 274.401 643.491 275.416 638.11 275.416C632.776 275.416 627.749 274.401 623.029 272.372C618.356 270.295 614.25 267.486 610.71 263.946C607.217 260.359 604.456 256.135 602.426 251.273C600.397 246.364 599.382 241.078 599.382 235.414C599.382 229.655 600.397 224.321 602.426 219.413C604.456 214.504 607.217 210.279 610.71 206.739C614.25 203.152 618.356 200.344 623.029 198.314C627.749 196.284 632.776 195.27 638.11 195.27C643.491 195.27 648.518 196.237 653.19 198.172C657.91 200.06 662.017 202.774 665.51 206.314C669.003 209.807 671.764 214.032 673.793 218.988C675.823 223.897 676.838 229.372 676.838 235.414ZM657.368 235.414C657.368 232.298 656.848 229.49 655.81 226.988C654.819 224.439 653.45 222.268 651.704 220.475C649.957 218.634 647.904 217.241 645.544 216.297C643.231 215.306 640.753 214.811 638.11 214.811C635.467 214.811 632.965 215.306 630.605 216.297C628.292 217.241 626.263 218.634 624.516 220.475C622.817 222.268 621.472 224.439 620.48 226.988C619.489 229.49 618.994 232.298 618.994 235.414C618.994 238.34 619.489 241.054 620.48 243.556C621.472 246.057 622.817 248.229 624.516 250.069C626.263 251.91 628.292 253.373 630.605 254.459C632.965 255.497 635.467 256.017 638.11 256.017C640.753 256.017 643.231 255.521 645.544 254.53C647.904 253.539 649.957 252.146 651.704 250.353C653.45 248.559 654.819 246.388 655.81 243.839C656.848 241.29 657.368 238.482 657.368 235.414ZM706.857 274H687.529V198.172H692.202L698.574 207.164C701.689 204.332 705.229 202.161 709.194 200.65C713.159 199.093 717.265 198.314 721.513 198.314H738.576V217.572H721.513C719.484 217.572 717.572 217.949 715.778 218.705C713.985 219.46 712.427 220.498 711.105 221.82C709.784 223.141 708.745 224.699 707.99 226.493C707.235 228.286 706.857 230.198 706.857 232.228V274ZM843.999 274H824.741V225.855C824.741 224.534 824.481 223.283 823.962 222.103C823.49 220.923 822.806 219.885 821.909 218.988C821.012 218.091 819.973 217.407 818.793 216.935C817.613 216.415 816.363 216.156 815.041 216.156C813.719 216.156 812.469 216.415 811.289 216.935C810.156 217.407 809.141 218.091 808.244 218.988C807.395 219.885 806.71 220.923 806.191 222.103C805.719 223.283 805.483 224.534 805.483 225.855V274H786.154V225.855C786.154 224.534 785.895 223.283 785.375 222.103C784.903 220.923 784.219 219.885 783.322 218.988C782.425 218.091 781.387 217.407 780.207 216.935C779.027 216.415 777.776 216.156 776.455 216.156C775.133 216.156 773.882 216.415 772.702 216.935C771.569 217.407 770.555 218.091 769.658 218.988C768.808 219.885 768.124 220.923 767.604 222.103C767.132 223.283 766.896 224.534 766.896 225.855V274H747.568V198.172H752.241L757.48 203.978C760.17 201.712 763.12 199.966 766.33 198.739C769.587 197.464 772.962 196.827 776.455 196.827C779.995 196.827 783.44 197.488 786.792 198.81C790.19 200.131 793.164 202.42 795.712 205.677C796.892 204.072 798.238 202.704 799.748 201.571C801.258 200.438 802.84 199.518 804.492 198.81C806.191 198.102 807.937 197.606 809.731 197.323C811.525 196.992 813.295 196.827 815.041 196.827C819.053 196.827 822.806 197.582 826.298 199.093C829.838 200.603 832.906 202.68 835.502 205.323C838.146 207.919 840.222 210.987 841.733 214.527C843.243 218.067 843.999 221.843 843.999 225.855V274ZM931.438 235.414C931.438 241.078 930.423 246.364 928.393 251.273C926.363 256.135 923.602 260.359 920.109 263.946C916.617 267.486 912.51 270.295 907.79 272.372C903.117 274.401 898.09 275.416 892.709 275.416C887.376 275.416 882.349 274.401 877.629 272.372C872.956 270.295 868.85 267.486 865.31 263.946C861.817 260.359 859.056 256.135 857.026 251.273C854.996 246.364 853.981 241.078 853.981 235.414C853.981 229.655 854.996 224.321 857.026 219.413C859.056 214.504 861.817 210.279 865.31 206.739C868.85 203.152 872.956 200.344 877.629 198.314C882.349 196.284 887.376 195.27 892.709 195.27C898.09 195.27 903.117 196.237 907.79 198.172C912.51 200.06 916.617 202.774 920.109 206.314C923.602 209.807 926.363 214.032 928.393 218.988C930.423 223.897 931.438 229.372 931.438 235.414ZM911.967 235.414C911.967 232.298 911.448 229.49 910.41 226.988C909.418 224.439 908.05 222.268 906.303 220.475C904.557 218.634 902.504 217.241 900.144 216.297C897.831 215.306 895.353 214.811 892.709 214.811C890.066 214.811 887.565 215.306 885.205 216.297C882.892 217.241 880.862 218.634 879.116 220.475C877.417 222.268 876.071 224.439 875.08 226.988C874.089 229.49 873.593 232.298 873.593 235.414C873.593 238.34 874.089 241.054 875.08 243.556C876.071 246.057 877.417 248.229 879.116 250.069C880.862 251.91 882.892 253.373 885.205 254.459C887.565 255.497 890.066 256.017 892.709 256.017C895.353 256.017 897.831 255.521 900.144 254.53C902.504 253.539 904.557 252.146 906.303 250.353C908.05 248.559 909.418 246.388 910.41 243.839C911.448 241.29 911.967 238.482 911.967 235.414ZM961.457 274H942.128V198.172H946.801L953.173 207.164C956.289 204.332 959.829 202.161 963.793 200.65C967.758 199.093 971.865 198.314 976.113 198.314H993.176V217.572H976.113C974.083 217.572 972.172 217.949 970.378 218.705C968.584 219.46 967.027 220.498 965.705 221.82C964.383 223.141 963.345 224.699 962.59 226.493C961.835 228.286 961.457 230.198 961.457 232.228V274Z" fill="#EA4C87"/>
<path d="M675.8 727C635.8 727 604 716.4 580.4 695.2C556.8 673.6 545 642.8 545 602.8C545 582.4 548.4 565 555.2 550.6C562 535.8 570.6 523.8 581 514.6C591.4 505.4 602 498.2 612.8 493C624 487.8 633.8 484.2 642.2 482.2C638.2 477.4 633.4 471.2 627.8 463.6C622.2 455.6 617.2 446 612.8 434.8C608.8 423.2 606.8 409.6 606.8 394C606.8 382 609.6 369.6 615.2 356.8C620.8 344 629.2 332.2 640.4 321.4C651.6 310.2 665.2 301.8 681.2 296.2C691.6 292.6 703.2 290.4 716 289.6C728.8 288.4 741.2 288.2 753.2 289C765.6 289.4 776.6 290.4 786.2 292C796.2 293.2 803.4 294.4 807.8 295.6L855.2 343.6L818.6 405.4L759.2 386.8C747.6 387.2 738.2 389.8 731 394.6C724.2 399 720.8 407 720.8 418.6C720.8 427.8 724 436.8 730.4 445.6C737.2 454 744.6 462.2 752.6 470.2L840.8 558.4L846.8 551.8L828.8 473.8L834.8 437.8L953.6 449.8V542.2L893.6 608.2L938 649.6L982.4 685V721H867.2L818.6 670.6C813.4 675.4 805 682.4 793.4 691.6C782.2 700.4 767 708.6 747.8 716.2C728.6 723.4 704.6 727 675.8 727ZM699.8 631C713.8 631 726.4 628.6 737.6 623.8C748.8 618.6 755.8 614.6 758.6 611.8L695.6 551.8C684 555.8 675 562 668.6 570.4C662.2 578.4 659 587.6 659 598C659 608.8 662.6 617 669.8 622.6C677.4 628.2 687.4 631 699.8 631Z" fill="#EA4C87"/>
<path d="M355.971 915C346.304 915 337.137 914.5 328.471 913.5C320.137 912.5 312.471 911.333 305.471 910L240.471 880L270.471 804L362.971 836C383.637 836 398.471 829.833 407.471 817.5C416.471 804.833 420.971 785.833 420.971 760.5V636L409.971 586L415.471 556H509.971L510.471 776.5C510.471 821.167 497.137 855.5 470.471 879.5C443.804 903.167 405.637 915 355.971 915Z" fill="#EA4C87"/>
</svg>
